<svg id="svg" version="1.1" width="400" height="400" viewBox="0 0 400 400" xmlns="http://www.w3.org/2000/svg" xmlns:xlink="http://www.w3.org/1999/xlink"><g id="svgg"><path id="path0" d="M199.902 82.682 C 198.863 83.091,197.672 83.781,194.360 85.892 C 192.574 87.030,190.322 88.459,189.355 89.068 C 188.389 89.676,185.884 91.257,183.789 92.580 C 181.694 93.903,178.574 95.863,176.855 96.936 C 175.137 98.009,173.049 99.313,172.217 99.834 C 171.384 100.355,170.022 101.205,169.189 101.724 C 168.357 102.242,165.610 103.969,163.086 105.560 C 160.562 107.152,157.554 109.035,156.402 109.744 C 150.581 113.332,149.156 115.972,151.105 119.553 C 152.945 122.934,155.792 123.160,160.254 120.278 C 165.175 117.100,167.210 115.809,168.750 114.890 C 170.263 113.986,178.621 108.708,185.449 104.344 C 186.953 103.382,189.238 101.937,190.527 101.132 C 191.816 100.328,194.321 98.745,196.094 97.616 C 197.866 96.487,199.820 95.265,200.437 94.901 C 206.461 91.339,207.738 89.901,207.325 87.145 C 206.833 83.860,202.908 81.500,199.902 82.682 M220.968 88.678 C 217.295 89.812,215.939 93.649,218.022 97.015 C 221.563 102.737,222.934 104.975,225.230 108.789 C 226.361 110.669,228.151 113.613,229.207 115.332 C 230.263 117.051,231.651 119.336,232.292 120.410 C 232.934 121.484,234.214 123.571,235.137 125.046 C 236.061 126.522,237.651 129.115,238.672 130.809 C 244.884 141.123,245.382 141.470,249.095 138.075 C 252.756 134.729,252.563 131.852,248.209 124.902 C 247.401 123.613,245.666 120.770,244.353 118.584 C 243.039 116.398,241.591 114.025,241.135 113.311 C 240.678 112.596,239.353 110.430,238.190 108.496 C 237.027 106.563,235.796 104.541,235.454 104.004 C 235.112 103.467,234.216 102.017,233.463 100.781 C 227.195 90.499,226.841 90.006,225.098 89.114 C 224.014 88.559,222.031 88.350,220.968 88.678 M254.248 96.500 C 252.458 97.543,253.161 100.365,255.463 101.371 C 258.677 102.777,258.789 103.059,258.791 109.807 C 258.793 118.017,259.247 119.426,262.549 121.456 C 263.455 122.014,263.480 121.921,262.234 122.624 C 259.295 124.283,258.934 125.403,258.799 133.301 C 258.667 140.982,258.640 141.054,255.247 142.779 C 253.611 143.610,253.320 144.035,253.321 145.586 C 253.326 150.579,262.292 146.752,264.085 140.991 C 264.407 139.957,264.453 139.153,264.453 134.580 C 264.453 126.999,264.558 126.683,267.685 124.878 C 269.788 123.663,269.949 123.444,269.958 121.770 C 269.968 120.188,269.854 120.050,267.661 118.972 C 264.538 117.435,264.422 117.095,264.492 109.622 C 264.552 103.244,264.437 102.560,262.980 100.575 C 261.050 97.946,255.896 95.540,254.248 96.500 M205.662 98.800 C 205.178 98.990,203.772 99.791,202.537 100.581 C 201.303 101.371,199.370 102.602,198.242 103.318 C 197.114 104.034,195.444 105.106,194.531 105.700 C 192.697 106.893,183.828 112.474,180.762 114.364 C 179.688 115.027,177.754 116.255,176.465 117.094 C 173.262 119.179,168.102 122.441,166.797 123.206 C 160.524 126.885,159.279 128.265,159.283 131.543 C 159.285 133.525,159.286 133.528,161.306 136.769 C 161.992 137.869,163.127 139.692,163.829 140.820 C 164.530 141.948,165.778 143.926,166.601 145.215 C 167.425 146.504,168.936 148.965,169.960 150.684 C 172.935 155.679,183.454 172.678,185.103 175.155 C 187.795 179.200,190.852 179.602,195.520 176.527 C 196.427 175.930,198.354 174.694,199.805 173.780 C 201.255 172.867,203.760 171.262,205.371 170.214 C 206.982 169.166,208.683 168.078,209.149 167.797 C 210.133 167.204,219.879 161.006,227.461 156.152 C 228.468 155.508,229.798 154.664,230.417 154.276 C 235.287 151.230,236.372 150.482,237.187 149.610 C 240.030 146.571,239.804 144.248,236.088 138.330 C 234.689 136.101,232.823 133.091,231.943 131.641 C 230.433 129.155,229.924 128.338,227.499 124.512 C 226.955 123.652,226.139 122.334,225.687 121.582 C 225.235 120.830,223.909 118.677,222.742 116.797 C 220.470 113.138,218.930 110.624,216.613 106.796 C 213.603 101.822,212.997 100.934,211.970 99.996 C 210.315 98.484,207.726 97.993,205.662 98.800 M144.236 104.088 C 138.691 106.063,137.500 108.342,137.500 116.974 C 137.500 124.605,137.407 124.863,134.073 126.525 C 132.293 127.412,132.031 127.776,132.031 129.360 C 132.031 130.697,132.360 131.130,133.913 131.834 C 137.328 133.382,137.359 133.465,137.506 141.504 C 137.634 148.443,137.645 148.522,138.768 150.294 C 141.042 153.883,146.805 156.092,147.994 153.830 C 148.905 152.096,148.341 150.704,146.357 149.793 C 143.278 148.379,143.164 148.075,143.163 141.266 C 143.162 135.409,143.045 134.172,142.357 132.696 C 141.829 131.566,140.104 129.760,139.377 129.578 C 138.697 129.407,138.733 129.262,139.573 128.810 C 140.577 128.269,142.300 126.291,142.697 125.223 C 142.981 124.461,143.053 123.305,143.149 117.969 C 143.290 110.105,143.254 110.213,146.199 108.682 C 148.319 107.580,148.619 107.122,148.334 105.433 C 148.050 103.754,146.553 103.263,144.236 104.088 M209.630 116.717 C 212.872 117.821,214.226 120.650,214.435 126.758 C 214.612 131.943,214.764 132.285,217.353 133.287 C 220.284 134.422,220.121 137.342,217.045 138.808 C 214.702 139.923,214.477 140.509,214.262 146.050 C 214.097 150.329,213.926 151.249,213.013 152.807 C 211.626 155.174,207.969 157.172,206.445 156.396 C 204.901 155.609,204.928 152.767,206.485 152.139 C 208.709 151.242,208.962 150.571,209.167 145.007 C 209.370 139.525,209.804 138.351,212.216 136.753 L 213.096 136.171 212.416 135.750 C 209.965 134.236,209.380 132.668,209.246 127.246 C 209.118 122.072,208.775 121.245,206.523 120.678 C 205.586 120.442,205.346 120.126,205.271 119.030 C 205.085 116.314,206.400 115.616,209.630 116.717 M191.302 118.823 C 191.803 119.324,192.124 120.760,191.897 121.477 C 191.823 121.709,191.170 122.279,190.446 122.744 C 188.547 123.961,188.456 124.213,188.166 129.102 C 187.846 134.484,186.858 136.920,184.717 137.611 C 184.192 137.781,184.299 137.948,185.250 138.453 C 187.499 139.646,188.076 141.403,188.254 147.593 C 188.398 152.594,188.420 152.660,190.243 153.544 C 191.979 154.385,192.494 155.687,191.805 157.497 C 191.067 159.438,186.091 157.652,184.282 154.797 C 183.219 153.119,183.157 152.774,183.015 147.754 C 182.848 141.860,182.848 141.858,180.040 140.458 C 177.144 139.013,177.331 136.444,180.446 134.874 C 182.740 133.718,182.828 133.491,182.994 128.320 L 183.123 124.316 183.846 122.820 C 185.452 119.494,189.697 117.218,191.302 118.823 M202.116 120.680 C 203.157 121.421,203.119 121.872,201.572 127.170 C 199.742 133.434,199.150 134.980,198.157 136.074 L 197.363 136.949 198.154 137.773 C 199.375 139.044,199.943 140.504,202.443 148.776 C 203.247 151.438,203.221 151.912,202.207 152.971 C 200.631 154.615,198.429 153.616,197.648 150.902 C 195.270 142.634,194.261 140.054,193.111 139.307 C 191.155 138.035,191.086 136.433,192.911 134.701 C 194.319 133.366,194.279 133.456,196.098 127.415 C 196.967 124.529,197.831 121.868,198.019 121.502 C 198.724 120.125,200.763 119.716,202.116 120.680 M161.815 150.613 C 161.550 151.493,159.005 156.549,158.193 157.813 C 155.842 161.466,151.922 164.871,151.147 163.934 C 148.121 160.276,140.670 165.917,143.602 169.645 C 143.822 169.924,143.920 170.214,143.824 170.302 C 143.377 170.711,125.388 181.639,100.781 196.450 C 98.364 197.904,95.552 199.631,94.531 200.288 C 93.511 200.944,92.259 201.722,91.749 202.017 C 84.859 206.010,83.874 216.758,89.883 222.396 C 95.291 227.471,101.699 227.227,108.105 221.704 C 111.051 219.164,116.219 214.675,116.992 213.984 C 117.368 213.648,118.989 212.231,120.594 210.837 C 122.199 209.442,125.325 206.719,127.540 204.785 C 129.755 202.852,132.083 200.830,132.713 200.293 C 133.343 199.756,134.964 198.346,136.314 197.160 C 137.665 195.974,140.659 193.352,142.969 191.333 C 145.278 189.315,147.739 187.157,148.438 186.538 C 149.136 185.919,150.278 184.941,150.977 184.365 C 151.675 183.788,152.275 183.247,152.311 183.162 C 152.434 182.870,152.919 183.009,154.160 183.691 C 158.070 185.841,162.768 181.761,161.049 177.709 C 160.781 177.078,164.988 174.526,167.268 173.936 C 168.733 173.557,173.220 173.179,175.114 173.274 C 175.911 173.315,176.563 173.323,176.563 173.294 C 176.563 173.237,173.854 168.797,172.719 166.992 C 172.347 166.401,171.033 164.292,169.797 162.305 C 168.562 160.317,167.173 158.120,166.711 157.422 C 166.249 156.724,165.100 154.922,164.157 153.418 C 162.058 150.071,162.000 150.001,161.815 150.613 M243.061 153.469 C 242.522 153.660,241.159 154.439,240.034 155.199 C 238.909 155.960,237.153 157.094,236.133 157.719 C 235.112 158.344,232.695 159.879,230.762 161.131 C 228.828 162.382,226.411 163.935,225.391 164.582 C 224.370 165.229,220.920 167.420,217.723 169.451 C 211.547 173.376,211.374 173.485,204.883 177.570 C 202.573 179.024,199.673 180.871,198.438 181.674 C 197.202 182.478,195.752 183.392,195.215 183.704 C 190.977 186.166,191.010 191.221,195.277 193.298 C 197.694 194.474,199.483 194.072,203.525 191.443 C 206.890 189.255,208.545 188.195,211.816 186.134 C 213.643 184.984,216.147 183.401,217.383 182.617 C 218.618 181.833,221.431 180.048,223.633 178.650 C 225.835 177.252,228.340 175.649,229.199 175.088 C 231.495 173.587,238.072 169.409,242.004 166.954 C 248.726 162.756,249.613 161.768,249.604 158.496 C 249.594 154.997,246.174 152.369,243.061 153.469 M151.367 205.357 C 149.186 205.966,147.495 207.458,146.423 209.722 L 145.801 211.035 145.733 215.479 L 145.666 219.922 204.252 219.922 L 262.838 219.922 262.962 219.016 C 263.883 212.297,262.332 207.539,258.629 205.721 L 257.520 205.176 204.883 205.144 C 163.160 205.118,152.064 205.162,151.367 205.357 M138.392 225.898 C 134.522 226.836,131.271 229.803,129.952 233.599 C 129.360 235.304,128.898 243.247,129.304 244.753 L 129.507 245.508 132.088 245.509 C 263.516 245.552,278.807 245.516,279.067 245.169 C 279.472 244.627,279.272 236.048,278.817 234.473 C 277.697 230.593,275.016 227.590,271.387 226.149 L 270.215 225.684 204.883 225.650 C 148.629 225.622,139.390 225.656,138.392 225.898 M173.455 267.992 C 155.472 270.077,144.451 286.373,149.232 303.810 C 153.484 319.319,171.089 327.832,187.942 322.529 C 197.861 319.407,205.579 310.406,207.134 300.148 C 210.118 280.453,194.510 265.551,173.455 267.992 M229.057 287.842 C 228.998 308.732,229.089 307.210,227.788 309.202 C 225.600 312.553,219.086 311.106,216.181 306.624 C 215.389 305.401,215.489 305.369,213.927 307.353 C 213.196 308.282,211.935 309.842,211.125 310.820 C 210.315 311.798,208.934 313.488,208.057 314.577 L 206.463 316.556 207.675 317.714 C 217.344 326.952,234.904 326.186,241.594 316.235 C 244.935 311.264,245.106 309.844,245.168 286.572 L 245.215 268.945 237.163 268.945 L 229.111 268.945 229.057 287.842 M182.031 281.645 C 189.070 283.947,192.829 291.587,191.014 299.902 C 189.480 306.928,183.353 311.327,176.212 310.531 C 160.893 308.822,159.800 284.789,174.884 281.331 C 176.605 280.936,180.369 281.102,182.031 281.645 " stroke="none" fill="#051c41" fill-rule="evenodd"></path><path id="path1" d="M0.000 200.000 L 0.000 400.000 200.000 400.000 L 400.000 400.000 400.000 200.000 L 400.000 0.000 200.000 0.000 L 0.000 0.000 0.000 200.000 M204.163 82.816 C 207.413 84.032,208.535 88.481,206.248 91.086 C 205.593 91.832,201.800 94.290,190.868 101.052 C 189.499 101.899,187.192 103.360,185.742 104.299 C 184.292 105.238,181.787 106.835,180.176 107.848 C 178.564 108.861,175.943 110.520,174.350 111.534 C 172.757 112.549,170.472 113.981,169.272 114.716 C 168.072 115.452,165.350 117.166,163.223 118.525 C 157.075 122.454,157.060 122.461,155.566 122.461 C 151.735 122.461,149.139 118.056,150.830 114.425 C 151.661 112.642,152.316 112.109,157.991 108.594 C 159.292 107.788,161.124 106.634,162.063 106.030 C 163.001 105.425,166.274 103.367,169.336 101.456 C 172.397 99.545,176.265 97.131,177.930 96.091 C 182.716 93.103,186.803 90.535,189.551 88.788 C 198.795 82.913,199.153 82.699,200.293 82.398 C 201.167 82.168,202.942 82.359,204.163 82.816 M225.243 89.010 C 226.877 89.899,228.130 91.601,232.252 98.535 C 232.891 99.609,233.936 101.323,234.575 102.344 C 235.214 103.364,236.364 105.254,237.131 106.543 C 237.897 107.832,238.939 109.546,239.445 110.352 C 242.785 115.667,243.576 116.952,245.693 120.508 C 246.684 122.173,248.070 124.458,248.772 125.586 C 251.329 129.693,251.660 130.499,251.660 132.617 C 251.660 137.357,246.548 141.740,243.963 139.216 C 243.189 138.462,243.219 138.508,239.154 131.836 C 237.420 128.989,235.533 125.913,234.962 125.000 C 234.391 124.087,233.422 122.505,232.808 121.484 C 232.195 120.464,230.614 117.871,229.294 115.723 C 227.974 113.574,226.242 110.718,225.446 109.375 C 223.905 106.778,223.185 105.599,219.852 100.212 C 217.089 95.746,216.797 95.151,216.797 93.981 C 216.797 89.846,221.593 87.023,225.243 89.010 M258.154 96.858 C 263.554 99.002,264.646 101.219,264.653 110.051 C 264.658 117.322,264.659 117.325,267.904 118.926 C 269.855 119.888,270.118 120.227,270.114 121.772 C 270.110 123.367,269.862 123.748,268.212 124.684 C 264.641 126.710,264.658 126.667,264.653 133.616 C 264.648 139.672,264.544 140.531,263.576 142.504 C 261.355 147.033,254.473 149.788,253.380 146.586 C 252.832 144.982,253.336 143.506,254.618 142.956 C 256.307 142.233,257.520 141.274,258.122 140.188 L 258.691 139.160 258.802 132.910 C 258.940 125.129,259.248 124.168,262.129 122.504 L 263.120 121.932 262.262 121.429 C 259.249 119.664,258.929 118.683,258.797 110.840 C 258.664 102.905,258.748 103.138,255.430 101.489 C 253.499 100.530,253.062 99.913,253.214 98.364 C 253.430 96.166,255.116 95.652,258.154 96.858 M210.539 98.843 C 211.864 99.413,213.234 100.946,214.827 103.642 C 215.517 104.808,216.716 106.772,217.493 108.008 C 218.270 109.243,219.386 111.045,219.972 112.012 C 221.982 115.325,227.012 123.487,229.721 127.832 C 239.998 144.316,239.128 142.746,239.138 144.824 C 239.152 147.733,238.021 149.570,235.025 151.504 C 233.499 152.489,229.811 154.834,226.855 156.699 C 225.996 157.241,223.843 158.623,222.070 159.769 C 220.298 160.916,218.145 162.276,217.285 162.792 C 216.426 163.308,214.712 164.403,213.477 165.225 C 212.241 166.047,210.352 167.254,209.277 167.906 C 208.203 168.559,205.479 170.281,203.223 171.734 C 191.877 179.039,192.667 178.611,190.527 178.612 C 187.336 178.614,186.459 177.805,182.375 171.094 C 181.361 169.429,180.107 167.407,179.587 166.602 C 179.067 165.796,177.706 163.599,176.562 161.719 C 175.418 159.839,173.796 157.202,172.957 155.859 C 172.118 154.517,170.683 152.144,169.769 150.586 C 168.854 149.028,167.402 146.655,166.542 145.313 C 159.218 133.882,158.858 133.193,159.067 130.998 C 159.364 127.888,160.048 127.227,168.262 122.116 C 170.840 120.512,174.312 118.324,175.977 117.254 C 177.642 116.184,179.971 114.708,181.152 113.974 C 182.334 113.240,183.740 112.357,184.277 112.011 C 184.814 111.665,186.484 110.611,187.988 109.668 C 189.492 108.726,191.118 107.706,191.602 107.403 C 192.085 107.099,193.785 106.013,195.379 104.988 C 196.974 103.963,198.309 103.125,198.346 103.125 C 198.383 103.125,199.489 102.412,200.803 101.540 C 206.002 98.093,207.700 97.622,210.539 98.843 M147.585 103.862 C 148.231 104.385,148.438 104.954,148.438 106.207 C 148.438 107.582,148.313 107.727,146.135 108.887 C 145.061 109.459,144.468 109.924,144.046 110.523 L 143.457 111.361 143.330 117.319 C 143.150 125.786,142.804 126.942,139.918 128.726 C 139.089 129.238,139.095 129.288,140.060 129.883 C 142.720 131.523,143.027 132.570,143.177 140.527 C 143.245 144.180,143.314 147.190,143.330 147.216 C 143.762 147.934,145.121 149.022,146.373 149.651 C 148.384 150.663,148.462 150.769,148.388 152.386 C 148.279 154.757,146.936 155.434,144.183 154.506 C 141.477 153.593,139.217 151.674,138.073 149.316 L 137.410 147.949 137.308 141.406 C 137.183 133.340,137.348 133.815,134.058 132.069 C 132.043 130.999,131.780 130.635,131.903 129.084 C 132.020 127.588,132.296 127.231,133.955 126.429 C 137.208 124.857,137.165 124.976,137.312 117.188 C 137.442 110.243,137.524 109.737,138.844 107.738 C 140.609 105.061,146.074 102.638,147.585 103.862 M205.980 116.704 C 204.803 117.882,205.113 120.151,206.502 120.520 C 208.897 121.158,209.221 121.909,209.394 127.246 C 209.583 133.040,209.925 133.889,212.902 135.950 L 213.343 136.255 212.460 136.772 C 209.888 138.279,209.204 140.374,209.186 146.797 C 209.177 150.200,208.756 151.180,206.934 152.042 C 205.710 152.621,205.468 152.967,205.469 154.138 C 205.472 157.210,209.056 157.065,212.011 153.874 C 213.755 151.990,213.944 151.216,214.234 144.810 C 214.432 140.413,215.046 139.145,217.238 138.602 C 219.950 137.930,219.864 134.253,217.116 133.318 C 214.676 132.489,214.410 131.851,214.254 126.465 L 214.130 122.168 213.479 120.805 C 212.194 118.115,210.271 116.687,207.639 116.466 C 206.546 116.374,206.270 116.414,205.980 116.704 M189.011 118.565 C 184.938 119.563,183.254 122.452,183.035 128.812 C 182.874 133.516,182.801 133.715,180.844 134.766 C 178.609 135.966,178.320 136.310,178.320 137.767 C 178.320 139.253,178.544 139.560,180.253 140.419 C 182.829 141.715,182.862 141.788,183.036 146.749 C 183.222 152.023,183.283 152.545,183.867 153.821 C 185.013 156.324,188.538 158.526,190.740 158.115 C 192.436 157.798,192.345 154.369,190.628 153.907 C 188.483 153.330,188.214 152.630,188.071 147.266 C 187.912 141.278,187.335 139.622,185.005 138.462 L 183.974 137.949 184.791 137.408 C 187.321 135.734,187.851 134.360,188.069 128.906 C 188.249 124.423,188.448 123.890,190.430 122.596 L 191.699 121.766 191.697 120.555 C 191.695 118.757,190.833 118.118,189.011 118.565 M199.021 120.595 C 198.334 120.969,197.745 122.109,197.188 124.140 C 196.619 126.214,196.340 127.147,195.190 130.809 C 194.356 133.464,194.276 133.624,193.435 134.325 C 191.355 136.056,191.179 137.914,192.984 139.072 C 194.306 139.921,194.488 140.300,196.165 145.703 C 198.339 152.704,198.288 152.565,198.845 152.976 C 199.492 153.453,200.814 153.632,201.510 153.336 C 202.982 152.710,203.156 151.378,202.173 148.242 C 199.439 139.517,199.108 138.702,197.872 137.665 L 197.104 137.019 197.886 136.171 C 198.973 134.991,199.359 134.037,201.158 128.079 C 202.734 122.860,202.911 121.984,202.533 121.278 C 202.063 120.399,200.087 120.015,199.021 120.595 M163.155 151.611 C 166.033 156.037,175.075 170.474,176.226 172.483 L 176.742 173.383 173.088 173.497 C 167.685 173.666,165.864 174.163,162.604 176.363 C 161.552 177.073,161.137 177.463,161.216 177.669 C 162.978 182.262,157.798 186.200,153.534 183.508 L 152.819 183.056 151.449 184.155 C 150.352 185.036,144.137 190.413,143.750 190.817 C 143.696 190.873,142.993 191.490,142.188 192.188 C 140.908 193.297,138.522 195.399,136.328 197.352 C 135.952 197.686,134.766 198.702,133.691 199.609 C 132.617 200.515,130.544 202.315,129.083 203.607 C 127.623 204.900,125.560 206.704,124.499 207.617 C 122.443 209.387,118.012 213.245,117.660 213.573 C 117.184 214.016,110.476 219.818,108.232 221.727 C 104.138 225.211,102.243 226.066,98.633 226.057 C 87.630 226.031,81.713 212.997,88.819 204.441 C 90.289 202.671,94.717 199.844,115.041 187.695 C 117.136 186.443,121.026 184.091,131.738 177.602 C 134.746 175.780,138.174 173.680,139.355 172.935 C 140.537 172.190,142.009 171.277,142.627 170.905 C 143.652 170.289,144.010 169.922,143.586 169.922 C 143.277 169.922,142.969 168.927,142.969 167.933 C 142.969 163.676,147.793 161.090,150.971 163.644 L 151.692 164.223 153.239 163.002 C 156.589 160.355,160.153 155.132,161.678 150.635 C 161.968 149.780,161.961 149.775,163.155 151.611 M246.231 153.361 C 249.352 154.707,250.652 158.316,249.123 161.388 C 248.414 162.814,247.803 163.359,244.531 165.488 C 242.010 167.128,240.536 168.065,234.180 172.066 C 232.622 173.046,229.864 174.807,228.050 175.980 C 226.237 177.153,223.171 179.104,221.239 180.316 C 219.306 181.528,217.098 182.925,216.333 183.421 C 204.176 191.300,200.262 193.668,198.942 193.942 C 195.317 194.695,191.805 191.770,192.034 188.189 C 192.208 185.484,192.366 185.332,199.902 180.577 C 202.158 179.153,207.256 175.924,211.230 173.401 C 215.205 170.878,220.654 167.428,223.340 165.733 C 226.025 164.039,229.321 161.929,230.664 161.045 C 232.007 160.162,234.292 158.704,235.742 157.806 C 237.192 156.908,239.052 155.708,239.875 155.140 C 242.749 153.154,244.571 152.644,246.231 153.361 M257.478 205.173 C 259.504 205.701,261.281 207.179,262.347 209.223 L 262.987 210.449 263.052 215.283 L 263.116 220.117 204.430 220.117 C 151.097 220.117,145.734 220.089,145.626 219.808 C 145.459 219.373,145.497 215.147,145.690 212.647 C 145.999 208.634,148.430 205.667,151.885 205.088 C 153.806 204.765,256.231 204.848,257.478 205.173 M270.167 225.677 C 275.004 226.703,278.712 231.170,279.313 236.695 C 279.600 239.331,279.479 244.957,279.126 245.381 C 278.712 245.879,130.010 245.879,129.459 245.380 C 128.967 244.935,128.930 237.548,129.407 235.197 C 130.405 230.288,134.336 226.398,139.093 225.611 C 141.048 225.287,268.635 225.352,270.167 225.677 M183.789 268.070 C 195.305 269.970,204.022 277.537,206.628 287.896 C 212.305 310.468,192.596 328.975,169.107 323.127 C 159.151 320.649,151.227 312.671,148.852 302.734 C 143.833 281.732,161.335 264.366,183.789 268.070 M245.265 287.549 C 245.193 308.242,245.211 307.918,243.945 311.719 C 240.451 322.212,228.558 327.016,216.211 322.922 C 212.501 321.692,207.017 318.129,206.480 316.599 C 206.415 316.414,207.278 315.297,210.645 311.208 C 211.719 309.903,213.193 308.078,213.920 307.152 C 215.467 305.182,215.412 305.201,216.181 306.396 C 218.976 310.740,224.631 312.343,227.285 309.545 C 229.102 307.629,229.135 307.198,229.064 286.261 L 229.004 268.750 237.167 268.750 L 245.331 268.750 245.265 287.549 M174.902 281.469 C 160.388 284.816,160.842 307.694,175.475 310.337 C 186.898 312.401,195.102 299.831,189.715 288.519 C 187.191 283.217,180.706 280.131,174.902 281.469 M350.710 377.795 C 350.896 377.724,350.943 377.789,350.861 378.004 C 350.794 378.177,350.646 378.260,350.530 378.188 C 350.415 378.117,349.942 378.064,349.479 378.070 C 349.016 378.076,348.685 378.003,348.745 377.906 C 348.804 377.810,349.066 377.770,349.326 377.817 C 349.586 377.864,349.854 377.813,349.921 377.704 C 350.004 377.570,350.109 377.570,350.241 377.702 C 350.350 377.810,350.560 377.852,350.710 377.795 M344.671 378.125 C 344.837 378.329,344.911 378.344,344.916 378.174 C 344.919 378.040,345.000 377.930,345.094 377.930 C 345.336 377.930,345.507 378.679,345.282 378.754 C 345.179 378.788,345.153 379.161,345.224 379.601 C 345.358 380.438,346.014 380.745,346.611 380.250 C 346.756 380.129,346.875 380.114,346.875 380.217 C 346.875 380.320,347.007 380.404,347.168 380.404 C 347.329 380.404,347.461 380.337,347.461 380.255 C 347.461 380.173,348.070 380.118,348.815 380.132 C 349.560 380.146,350.139 380.207,350.101 380.268 C 350.064 380.328,350.465 380.363,350.993 380.346 L 351.953 380.315 351.953 382.039 C 351.953 383.591,351.914 383.775,351.563 383.887 C 350.960 384.078,351.000 385.504,351.611 385.630 C 353.795 386.077,353.806 386.069,353.815 383.887 C 353.830 380.494,353.913 379.102,354.102 379.102 C 354.209 379.102,354.300 379.255,354.303 379.443 C 354.309 379.742,354.339 379.748,354.548 379.492 C 354.834 379.142,355.273 379.023,355.273 379.297 C 355.273 379.404,355.171 379.492,355.046 379.492 C 354.920 379.492,354.869 379.543,354.931 379.606 C 354.994 379.668,355.224 379.623,355.443 379.506 C 355.747 379.343,355.900 379.358,356.094 379.567 C 356.311 379.801,356.429 379.798,356.913 379.549 L 357.479 379.258 357.329 379.912 C 357.246 380.272,357.171 380.720,357.161 380.908 C 357.151 381.096,357.069 381.250,356.978 381.250 C 356.887 381.250,356.867 381.338,356.934 381.445 C 357.000 381.553,356.952 381.641,356.827 381.641 C 356.701 381.641,356.649 381.772,356.711 381.934 C 356.773 382.095,356.729 382.227,356.614 382.227 C 356.498 382.227,356.454 382.359,356.517 382.521 C 356.579 382.683,356.538 383.057,356.426 383.351 C 356.314 383.646,356.236 383.921,356.253 383.963 C 356.270 384.004,356.179 384.103,356.052 384.181 C 355.925 384.260,355.808 384.555,355.791 384.838 C 355.775 385.120,355.686 385.351,355.594 385.351 C 355.502 385.352,355.478 385.483,355.539 385.645 C 355.601 385.806,355.574 385.938,355.478 385.938 C 355.383 385.938,355.251 386.183,355.185 386.482 C 355.105 386.847,354.933 387.037,354.664 387.057 C 354.373 387.079,354.296 387.003,354.382 386.778 C 354.486 386.508,354.458 386.503,354.166 386.740 C 353.981 386.890,353.893 386.909,353.970 386.781 C 354.221 386.363,353.728 386.295,350.578 386.318 C 347.673 386.339,347.461 386.316,347.461 385.981 C 347.461 385.659,347.632 385.623,349.121 385.641 L 350.781 385.660 350.781 383.162 L 350.781 380.664 348.258 380.664 C 344.821 380.664,345.137 380.316,345.128 384.115 C 345.124 385.887,345.076 387.409,345.021 387.498 C 344.851 387.773,344.141 387.473,344.141 387.126 C 344.141 386.623,343.737 386.328,343.050 386.328 C 342.378 386.328,342.037 385.776,342.453 385.360 C 342.790 385.022,342.226 384.752,341.309 384.812 C 340.640 384.856,340.518 384.934,340.460 385.352 C 340.338 386.236,338.599 386.813,338.374 386.045 C 338.341 385.932,338.261 385.598,338.196 385.303 C 338.100 384.864,337.962 384.758,337.447 384.724 C 337.100 384.701,338.262 384.635,340.028 384.578 L 343.240 384.473 343.303 382.497 C 343.383 380.005,343.511 380.104,340.124 380.029 L 337.402 379.968 340.552 379.926 C 343.937 379.880,344.101 379.830,344.183 378.838 C 344.207 378.553,344.311 378.320,344.416 378.320 C 344.520 378.320,344.435 378.187,344.227 378.025 C 343.966 377.821,343.939 377.745,344.140 377.780 C 344.301 377.809,344.540 377.964,344.671 378.125 M348.314 378.024 C 348.230 378.243,348.113 378.265,347.832 378.115 C 347.332 377.847,347.365 377.734,347.943 377.734 C 348.289 377.734,348.394 377.816,348.314 378.024 M355.944 379.111 C 355.736 379.186,355.525 379.210,355.474 379.164 C 355.316 379.019,355.929 378.731,356.130 378.855 C 356.235 378.920,356.152 379.035,355.944 379.111 M371.875 379.211 C 371.875 379.394,371.688 379.483,371.338 379.466 C 370.877 379.443,370.863 379.427,371.240 379.354 C 371.482 379.308,371.680 379.183,371.680 379.076 C 371.680 378.970,371.578 378.946,371.454 379.023 C 371.313 379.110,371.282 379.076,371.370 378.933 C 371.545 378.650,371.875 378.831,371.875 379.211 M363.603 380.444 C 364.088 380.335,364.445 380.700,364.146 380.999 C 363.982 381.163,363.901 381.349,363.966 381.414 C 364.031 381.479,364.165 381.402,364.264 381.244 C 364.389 381.043,364.420 381.144,364.367 381.577 C 364.317 381.976,364.384 382.233,364.554 382.298 C 364.853 382.413,364.894 385.938,364.596 385.938 C 364.505 385.938,364.484 385.851,364.549 385.744 C 364.618 385.633,364.538 385.601,364.361 385.670 C 364.133 385.757,364.107 385.854,364.262 386.041 C 364.409 386.218,364.410 386.332,364.266 386.421 C 364.004 386.583,363.477 386.066,363.477 385.647 C 363.477 385.472,363.411 385.369,363.330 385.419 C 363.250 385.469,363.170 385.279,363.153 384.997 C 363.136 384.715,363.031 384.454,362.920 384.417 C 362.808 384.380,362.766 384.224,362.825 384.069 C 362.884 383.915,362.835 383.789,362.716 383.789 C 362.597 383.789,362.514 383.723,362.532 383.643 C 362.549 383.562,362.460 383.247,362.335 382.943 C 362.209 382.638,362.156 382.309,362.217 382.210 C 362.278 382.112,362.229 382.031,362.108 382.031 C 361.972 382.031,361.938 381.872,362.019 381.616 C 362.092 381.388,362.073 381.249,361.978 381.308 C 361.775 381.434,361.798 380.724,362.014 380.208 C 362.129 379.933,362.200 379.909,362.321 380.105 C 362.443 380.303,362.509 380.283,362.610 380.020 C 362.730 379.706,362.767 379.711,363.088 380.081 C 363.280 380.302,363.511 380.465,363.603 380.444 M368.626 380.648 C 368.555 381.004,368.610 381.264,368.779 381.373 C 369.093 381.575,370.703 381.632,370.703 381.441 C 370.703 380.788,372.174 381.417,372.229 382.094 L 372.291 382.841 371.155 382.796 C 369.395 382.727,369.141 382.868,369.141 383.911 C 369.141 384.447,369.217 384.742,369.336 384.668 C 369.443 384.602,369.531 384.648,369.531 384.770 C 369.531 384.922,369.969 384.972,370.908 384.928 L 372.284 384.863 372.226 385.547 C 372.165 386.262,370.831 386.617,370.175 386.092 C 370.045 385.989,369.847 385.961,369.735 386.030 C 369.552 386.143,369.446 385.893,369.508 385.498 C 369.536 385.321,369.461 385.316,369.060 385.470 C 368.891 385.535,368.798 385.662,368.854 385.753 C 368.910 385.844,368.756 386.015,368.511 386.134 C 368.109 386.329,368.099 386.323,368.410 386.072 C 368.734 385.810,368.734 385.778,368.422 385.524 C 368.195 385.340,368.136 385.332,368.237 385.499 C 368.325 385.646,368.262 385.792,368.080 385.862 C 367.913 385.926,367.834 386.079,367.906 386.202 C 367.977 386.325,367.844 386.258,367.611 386.053 C 367.377 385.847,367.234 385.630,367.295 385.570 C 367.355 385.510,367.476 385.577,367.564 385.720 C 367.683 385.912,367.761 385.920,367.866 385.751 C 368.013 385.512,367.425 384.716,367.203 384.854 C 367.132 384.897,367.062 384.370,367.045 383.682 C 367.029 382.993,367.100 382.378,367.203 382.315 C 367.305 382.251,367.339 382.118,367.277 382.018 C 367.215 381.918,367.258 381.836,367.371 381.836 C 367.605 381.836,367.658 380.936,367.432 380.810 C 367.351 380.765,367.395 380.755,367.529 380.788 C 367.664 380.820,367.773 380.762,367.773 380.658 C 367.773 380.554,367.959 380.469,368.185 380.469 C 368.477 380.469,368.563 380.380,368.480 380.166 C 368.416 379.997,368.447 379.914,368.551 379.978 C 368.653 380.041,368.687 380.343,368.626 380.648 M378.630 380.908 C 378.614 381.150,378.692 381.414,378.803 381.494 C 378.934 381.590,378.909 381.702,378.731 381.816 C 378.525 381.949,378.484 382.286,378.566 383.184 C 378.635 383.944,378.601 384.375,378.472 384.375 C 378.348 384.375,378.308 384.714,378.369 385.254 C 378.442 385.901,378.400 386.133,378.210 386.133 C 378.069 386.133,377.890 386.234,377.813 386.358 C 377.721 386.508,377.761 386.530,377.930 386.426 C 378.100 386.321,378.138 386.344,378.045 386.495 C 377.939 386.666,377.811 386.658,377.536 386.465 C 377.283 386.288,376.704 386.230,375.693 386.280 L 374.219 386.354 374.219 385.657 L 374.219 384.961 375.307 384.961 C 376.565 384.961,376.953 384.686,376.953 383.795 C 376.953 382.886,376.671 382.706,375.366 382.781 L 374.219 382.847 374.219 382.049 C 374.219 381.173,374.292 381.137,375.437 381.455 C 375.940 381.594,376.283 381.595,376.544 381.455 C 376.820 381.307,376.944 381.318,377.006 381.496 C 377.113 381.800,377.930 381.124,377.930 380.731 C 377.930 380.587,378.093 380.469,378.294 380.469 C 378.549 380.469,378.649 380.600,378.630 380.908 M383.750 381.484 C 384.205 381.940,383.967 382.031,382.324 382.031 C 380.727 382.031,380.317 381.857,380.794 381.380 C 381.024 381.151,383.504 381.238,383.750 381.484 M359.734 381.592 C 359.717 381.672,359.808 381.995,359.937 382.309 C 360.067 382.623,360.127 382.997,360.073 383.139 C 360.018 383.282,360.058 383.398,360.162 383.398 C 360.266 383.398,360.352 383.486,360.352 383.594 C 360.352 383.701,359.956 383.789,359.473 383.789 C 358.500 383.789,358.510 383.805,358.806 382.738 C 359.048 381.866,359.902 380.812,359.734 381.592 M341.406 382.422 C 341.406 382.786,341.276 382.813,339.453 382.813 C 336.625 382.813,336.584 382.271,339.404 382.177 C 340.452 382.142,341.331 382.095,341.357 382.072 C 341.384 382.050,341.406 382.207,341.406 382.422 M348.987 383.057 C 348.928 383.665,348.888 383.694,347.998 383.751 L 347.070 383.810 347.070 383.116 L 347.070 382.422 348.059 382.422 L 349.048 382.422 348.987 383.057 M384.228 383.624 C 384.166 383.863,384.198 383.996,384.301 383.932 C 384.454 383.838,384.482 384.169,384.391 385.010 C 384.323 385.640,383.984 384.949,383.984 384.180 C 383.984 383.643,384.064 383.203,384.161 383.203 C 384.259 383.203,384.289 383.393,384.228 383.624 M381.641 385.072 C 381.641 386.267,381.614 386.346,381.249 386.230 C 380.989 386.148,380.818 386.209,380.740 386.411 C 380.676 386.579,380.544 386.668,380.448 386.608 C 380.211 386.462,380.225 385.547,380.465 385.547 C 380.580 385.547,380.608 385.194,380.536 384.668 L 380.416 383.789 381.028 383.789 L 381.641 383.789 381.641 385.072 M358.538 385.986 C 358.543 386.121,358.611 386.384,358.689 386.572 C 358.777 386.783,358.744 386.914,358.603 386.914 C 358.478 386.914,358.438 386.812,358.515 386.688 C 358.611 386.533,358.522 386.497,358.234 386.572 C 358.002 386.633,357.764 386.602,357.704 386.505 C 357.643 386.408,357.687 386.328,357.801 386.328 C 357.915 386.328,358.008 386.196,358.008 386.035 C 358.008 385.684,358.525 385.636,358.538 385.986 M360.693 386.001 C 361.000 386.196,361.012 386.845,360.712 387.030 C 360.568 387.119,360.540 387.084,360.634 386.931 C 360.724 386.785,360.679 386.707,360.518 386.729 C 359.522 386.866,358.940 386.715,359.205 386.388 C 359.357 386.200,359.373 386.117,359.242 386.196 C 359.115 386.272,358.948 386.232,358.870 386.106 C 358.785 385.968,358.813 385.929,358.941 386.008 C 359.057 386.080,359.194 386.072,359.245 385.990 C 359.366 385.794,360.380 385.802,360.693 386.001 M354.883 387.488 C 354.937 387.498,354.857 387.584,354.705 387.680 C 354.393 387.878,353.857 387.737,354.006 387.497 C 354.059 387.410,354.257 387.369,354.444 387.405 C 354.632 387.441,354.829 387.478,354.883 387.488 " stroke="none" fill="#f5f5f3" fill-rule="evenodd"></path><path id="path2" d="M137.382 115.137 C 137.382 116.641,137.413 117.230,137.450 116.447 C 137.487 115.663,137.487 114.433,137.449 113.712 C 137.412 112.992,137.381 113.633,137.382 115.137 M137.376 120.215 C 137.377 121.289,137.409 121.704,137.449 121.136 C 137.488 120.568,137.488 119.690,137.448 119.183 C 137.408 118.676,137.376 119.141,137.376 120.215 M214.331 127.441 C 214.331 128.623,214.363 129.081,214.402 128.460 C 214.441 127.838,214.441 126.871,214.402 126.311 C 214.362 125.751,214.330 126.260,214.331 127.441 M178.170 137.891 C 178.170 138.267,178.211 138.420,178.260 138.232 C 178.309 138.044,178.309 137.737,178.260 137.549 C 178.211 137.361,178.170 137.515,178.170 137.891 M264.498 138.086 C 264.498 138.462,264.539 138.616,264.588 138.428 C 264.637 138.240,264.637 137.932,264.588 137.744 C 264.539 137.556,264.498 137.710,264.498 138.086 M249.663 158.594 C 249.663 159.077,249.701 159.275,249.747 159.033 C 249.794 158.792,249.794 158.396,249.747 158.154 C 249.701 157.913,249.663 158.110,249.663 158.594 M190.088 178.650 C 190.276 178.699,190.583 178.699,190.771 178.650 C 190.959 178.601,190.806 178.561,190.430 178.561 C 190.054 178.561,189.900 178.601,190.088 178.650 M160.315 205.029 C 162.067 205.061,164.880 205.061,166.565 205.029 C 168.250 204.996,166.816 204.970,163.379 204.970 C 159.941 204.970,158.563 204.997,160.315 205.029 M175.732 205.029 C 177.478 205.061,180.334 205.061,182.080 205.029 C 183.826 204.997,182.397 204.970,178.906 204.970 C 175.415 204.970,173.987 204.997,175.732 205.029 M187.066 205.026 C 187.525 205.067,188.228 205.067,188.628 205.025 C 189.028 204.983,188.652 204.949,187.793 204.950 C 186.934 204.950,186.606 204.985,187.066 205.026 M195.947 205.029 C 197.102 205.063,198.992 205.063,200.146 205.029 C 201.301 204.994,200.356 204.966,198.047 204.966 C 195.737 204.966,194.792 204.994,195.947 205.029 M204.736 205.029 C 205.999 205.063,208.064 205.063,209.326 205.029 C 210.588 204.995,209.556 204.967,207.031 204.967 C 204.507 204.967,203.474 204.995,204.736 205.029 M221.924 205.029 C 223.938 205.061,227.234 205.061,229.248 205.029 C 231.262 204.997,229.614 204.971,225.586 204.971 C 221.558 204.971,219.910 204.997,221.924 205.029 M235.892 205.024 C 236.243 205.068,236.771 205.067,237.064 205.022 C 237.358 204.978,237.070 204.942,236.426 204.943 C 235.781 204.944,235.541 204.981,235.892 205.024 M252.889 205.028 C 253.564 205.066,254.619 205.066,255.232 205.027 C 255.846 204.988,255.293 204.957,254.004 204.957 C 252.715 204.958,252.213 204.989,252.889 205.028 M148.107 220.068 C 149.375 220.102,151.396 220.102,152.599 220.068 C 153.801 220.033,152.764 220.005,150.293 220.006 C 147.822 220.006,146.838 220.034,148.107 220.068 M161.182 220.068 C 163.303 220.100,166.775 220.100,168.896 220.068 C 171.018 220.037,169.282 220.011,165.039 220.011 C 160.796 220.011,159.060 220.037,161.182 220.068 M187.256 220.068 C 190.613 220.098,196.106 220.098,199.463 220.068 C 202.820 220.038,200.073 220.014,193.359 220.014 C 186.646 220.014,183.899 220.038,187.256 220.068 M216.455 220.068 C 220.188 220.098,226.296 220.098,230.029 220.068 C 233.762 220.039,230.708 220.014,223.242 220.014 C 215.776 220.014,212.722 220.039,216.455 220.068 M239.603 220.063 C 239.954 220.107,240.481 220.106,240.775 220.061 C 241.068 220.017,240.781 219.981,240.137 219.982 C 239.492 219.983,239.252 220.020,239.603 220.063 M246.519 220.068 C 249.385 220.099,254.131 220.099,257.066 220.068 C 260.001 220.038,257.656 220.013,251.855 220.013 C 246.055 220.013,243.653 220.038,246.519 220.068 M141.949 225.534 C 142.408 225.575,143.111 225.575,143.511 225.533 C 143.911 225.491,143.535 225.457,142.676 225.458 C 141.816 225.458,141.489 225.493,141.949 225.534 M202.981 225.531 C 203.278 225.576,203.718 225.574,203.958 225.528 C 204.198 225.482,203.955 225.445,203.418 225.446 C 202.881 225.448,202.684 225.486,202.981 225.531 M210.107 225.537 C 212.498 225.568,216.409 225.568,218.799 225.537 C 221.189 225.506,219.233 225.480,214.453 225.480 C 209.673 225.480,207.717 225.506,210.107 225.537 M241.175 225.537 C 243.573 225.568,247.440 225.568,249.769 225.537 C 252.098 225.506,250.137 225.480,245.410 225.480 C 240.684 225.480,238.778 225.506,241.175 225.537 M260.205 225.537 C 261.575 225.570,263.816 225.570,265.186 225.537 C 266.555 225.503,265.435 225.476,262.695 225.476 C 259.956 225.476,258.835 225.503,260.205 225.537 M231.006 268.894 C 231.570 268.933,232.493 268.933,233.057 268.894 C 233.621 268.855,233.159 268.822,232.031 268.822 C 230.903 268.822,230.442 268.855,231.006 268.894 M245.176 302.930 C 245.176 303.521,245.212 303.762,245.257 303.467 C 245.302 303.171,245.302 302.688,245.257 302.393 C 245.212 302.097,245.176 302.339,245.176 302.930 " stroke="none" fill="#9aa5ac" fill-rule="evenodd"></path><path id="path3" d="M201.123 82.364 C 201.365 82.411,201.760 82.411,202.002 82.364 C 202.244 82.318,202.046 82.280,201.563 82.280 C 201.079 82.280,200.881 82.318,201.123 82.364 M253.174 98.730 C 253.176 99.160,253.216 99.313,253.263 99.070 C 253.310 98.827,253.308 98.475,253.259 98.289 C 253.210 98.102,253.172 98.301,253.174 98.730 M143.246 116.895 C 143.246 119.043,143.274 119.949,143.310 118.907 C 143.345 117.865,143.345 116.107,143.310 115.001 C 143.275 113.894,143.246 114.746,143.246 116.895 M214.118 147.168 C 214.120 147.705,214.158 147.902,214.203 147.605 C 214.248 147.308,214.246 146.868,214.200 146.628 C 214.154 146.388,214.117 146.631,214.118 147.168 M183.064 149.512 C 183.065 150.049,183.103 150.245,183.148 149.948 C 183.193 149.652,183.192 149.212,183.145 148.972 C 183.099 148.732,183.062 148.975,183.064 149.512 M153.865 205.028 C 154.541 205.066,155.595 205.066,156.209 205.027 C 156.822 204.988,156.270 204.957,154.980 204.957 C 153.691 204.958,153.189 204.989,153.865 205.028 M170.264 205.026 C 170.720 205.067,171.467 205.067,171.924 205.026 C 172.380 204.985,172.007 204.951,171.094 204.951 C 170.181 204.951,169.807 204.985,170.264 205.026 M185.400 205.017 C 185.588 205.067,185.896 205.067,186.084 205.017 C 186.272 204.968,186.118 204.928,185.742 204.928 C 185.366 204.928,185.212 204.968,185.400 205.017 M190.381 205.027 C 191.052 205.066,192.151 205.066,192.822 205.027 C 193.494 204.989,192.944 204.958,191.602 204.958 C 190.259 204.958,189.709 204.989,190.381 205.027 M213.125 205.028 C 214.059 205.064,215.641 205.064,216.641 205.028 C 217.640 204.993,216.875 204.964,214.941 204.964 C 213.008 204.963,212.190 204.992,213.125 205.028 M233.345 205.024 C 233.692 205.067,234.307 205.068,234.712 205.025 C 235.118 204.983,234.834 204.948,234.082 204.947 C 233.330 204.946,232.999 204.981,233.345 205.024 M241.077 205.029 C 243.098 205.061,246.350 205.061,248.304 205.029 C 250.257 204.997,248.604 204.971,244.629 204.971 C 240.654 204.971,239.056 204.997,241.077 205.029 M145.586 216.895 C 145.586 218.506,145.616 219.139,145.653 218.302 C 145.690 217.464,145.690 216.146,145.653 215.372 C 145.616 214.598,145.586 215.283,145.586 216.895 M155.322 220.064 C 155.725 220.106,156.384 220.106,156.787 220.064 C 157.190 220.022,156.860 219.988,156.055 219.988 C 155.249 219.988,154.919 220.022,155.322 220.064 M175.547 220.068 C 176.654 220.103,178.412 220.102,179.454 220.067 C 180.495 220.032,179.590 220.004,177.441 220.004 C 175.293 220.004,174.441 220.033,175.547 220.068 M206.494 220.066 C 207.112 220.105,208.123 220.105,208.740 220.066 C 209.358 220.027,208.853 219.996,207.617 219.996 C 206.382 219.996,205.876 220.027,206.494 220.066 M238.039 220.060 C 238.282 220.107,238.634 220.105,238.821 220.056 C 239.007 220.007,238.809 219.969,238.379 219.971 C 237.949 219.973,237.796 220.013,238.039 220.060 M140.283 225.525 C 140.471 225.574,140.779 225.574,140.967 225.525 C 141.155 225.476,141.001 225.436,140.625 225.436 C 140.249 225.436,140.095 225.476,140.283 225.525 M147.900 225.537 C 150.022 225.568,153.494 225.568,155.615 225.537 C 157.737 225.505,156.001 225.480,151.758 225.480 C 147.515 225.480,145.779 225.505,147.900 225.537 M170.264 225.537 C 175.984 225.566,185.344 225.566,191.064 225.537 C 196.785 225.508,192.104 225.485,180.664 225.485 C 169.224 225.485,164.543 225.508,170.264 225.537 M204.639 225.528 C 204.880 225.575,205.276 225.575,205.518 225.528 C 205.759 225.482,205.562 225.444,205.078 225.444 C 204.595 225.444,204.397 225.482,204.639 225.528 M223.877 225.534 C 224.387 225.574,225.222 225.574,225.732 225.534 C 226.243 225.494,225.825 225.461,224.805 225.461 C 223.784 225.461,223.367 225.494,223.877 225.534 M229.248 225.537 C 230.671 225.570,233.000 225.570,234.424 225.537 C 235.847 225.503,234.683 225.476,231.836 225.476 C 228.989 225.476,227.825 225.503,229.248 225.537 M254.834 225.535 C 255.398 225.574,256.321 225.574,256.885 225.535 C 257.449 225.495,256.987 225.463,255.859 225.463 C 254.731 225.463,254.270 225.495,254.834 225.535 M267.920 225.528 C 268.162 225.575,268.557 225.575,268.799 225.528 C 269.041 225.482,268.843 225.444,268.359 225.444 C 267.876 225.444,267.678 225.482,267.920 225.528 M279.378 241.113 C 279.378 243.154,279.407 243.963,279.443 242.910 C 279.478 241.857,279.478 240.187,279.442 239.199 C 279.407 238.211,279.378 239.072,279.378 241.113 M175.931 267.720 C 176.282 267.763,176.810 267.762,177.103 267.718 C 177.397 267.673,177.109 267.638,176.465 267.639 C 175.820 267.640,175.580 267.676,175.931 267.720 M178.762 267.718 C 179.059 267.763,179.499 267.762,179.739 267.716 C 179.979 267.669,179.736 267.633,179.199 267.634 C 178.662 267.635,178.466 267.673,178.762 267.718 M199.902 276.172 C 200.322 276.602,200.709 276.953,200.763 276.953 C 200.817 276.953,200.517 276.602,200.098 276.172 C 199.678 275.742,199.291 275.391,199.237 275.391 C 199.183 275.391,199.483 275.742,199.902 276.172 M224.365 324.357 C 224.607 324.403,225.002 324.403,225.244 324.357 C 225.486 324.310,225.288 324.272,224.805 324.272 C 224.321 324.272,224.124 324.310,224.365 324.357 M349.921 377.704 C 349.854 377.813,349.586 377.864,349.326 377.817 C 349.066 377.770,348.804 377.810,348.745 377.906 C 348.685 378.003,349.016 378.076,349.479 378.070 C 349.942 378.064,350.415 378.117,350.530 378.188 C 350.646 378.260,350.794 378.177,350.861 378.004 C 350.943 377.789,350.896 377.724,350.710 377.795 C 350.560 377.852,350.350 377.810,350.241 377.702 C 350.109 377.570,350.004 377.570,349.921 377.704 M344.227 378.025 C 344.435 378.187,344.520 378.320,344.416 378.320 C 344.311 378.320,344.207 378.553,344.183 378.838 C 344.101 379.830,343.937 379.880,340.552 379.926 L 337.402 379.968 340.124 380.029 C 343.511 380.104,343.383 380.005,343.303 382.497 L 343.240 384.473 340.028 384.578 C 338.262 384.635,337.100 384.701,337.447 384.724 C 337.962 384.758,338.100 384.864,338.196 385.303 C 338.261 385.598,338.341 385.932,338.374 386.045 C 338.599 386.813,340.338 386.236,340.460 385.352 C 340.518 384.934,340.640 384.856,341.309 384.812 C 342.226 384.752,342.790 385.022,342.453 385.360 C 342.037 385.776,342.378 386.328,343.050 386.328 C 343.737 386.328,344.141 386.623,344.141 387.126 C 344.141 387.473,344.851 387.773,345.021 387.498 C 345.076 387.409,345.124 385.887,345.128 384.115 C 345.137 380.316,344.821 380.664,348.258 380.664 L 350.781 380.664 350.781 383.162 L 350.781 385.660 349.121 385.641 C 347.632 385.623,347.461 385.659,347.461 385.981 C 347.461 386.316,347.673 386.339,350.578 386.318 C 353.728 386.295,354.221 386.363,353.970 386.781 C 353.893 386.909,353.981 386.890,354.166 386.740 C 354.458 386.503,354.486 386.508,354.382 386.778 C 354.296 387.003,354.373 387.079,354.664 387.057 C 354.933 387.037,355.105 386.847,355.185 386.482 C 355.251 386.183,355.383 385.938,355.478 385.938 C 355.574 385.938,355.601 385.806,355.539 385.645 C 355.478 385.483,355.502 385.352,355.594 385.351 C 355.686 385.351,355.775 385.120,355.791 384.838 C 355.808 384.555,355.925 384.260,356.052 384.181 C 356.179 384.103,356.270 384.004,356.253 383.963 C 356.236 383.921,356.314 383.646,356.426 383.351 C 356.538 383.057,356.579 382.683,356.517 382.521 C 356.454 382.359,356.498 382.227,356.614 382.227 C 356.729 382.227,356.773 382.095,356.711 381.934 C 356.649 381.772,356.701 381.641,356.827 381.641 C 356.952 381.641,357.000 381.553,356.934 381.445 C 356.867 381.338,356.887 381.250,356.978 381.250 C 357.069 381.250,357.151 381.096,357.161 380.908 C 357.171 380.720,357.246 380.272,357.329 379.912 L 357.479 379.258 356.913 379.549 C 356.429 379.798,356.311 379.801,356.094 379.567 C 355.900 379.358,355.747 379.343,355.443 379.506 C 355.224 379.623,354.994 379.668,354.931 379.606 C 354.869 379.543,354.920 379.492,355.046 379.492 C 355.171 379.492,355.273 379.404,355.273 379.297 C 355.273 379.023,354.834 379.142,354.548 379.492 C 354.339 379.748,354.309 379.742,354.303 379.443 C 354.300 379.255,354.209 379.102,354.102 379.102 C 353.913 379.102,353.830 380.494,353.815 383.887 C 353.806 386.069,353.795 386.077,351.611 385.630 C 351.000 385.504,350.960 384.078,351.563 383.887 C 351.914 383.775,351.953 383.591,351.953 382.039 L 351.953 380.315 350.993 380.346 C 350.465 380.363,350.064 380.328,350.101 380.268 C 350.139 380.207,349.560 380.146,348.815 380.132 C 348.070 380.118,347.461 380.173,347.461 380.255 C 347.461 380.337,347.329 380.404,347.168 380.404 C 347.007 380.404,346.875 380.320,346.875 380.217 C 346.875 380.114,346.756 380.129,346.611 380.250 C 346.014 380.745,345.358 380.438,345.224 379.601 C 345.153 379.161,345.179 378.788,345.282 378.754 C 345.507 378.679,345.336 377.930,345.094 377.930 C 345.000 377.930,344.919 378.040,344.916 378.174 C 344.911 378.344,344.837 378.329,344.671 378.125 C 344.540 377.964,344.301 377.809,344.140 377.780 C 343.939 377.745,343.966 377.821,344.227 378.025 M347.461 377.825 C 347.461 378.115,348.212 378.290,348.314 378.024 C 348.394 377.816,348.289 377.734,347.943 377.734 C 347.678 377.734,347.461 377.775,347.461 377.825 M355.660 378.909 C 355.283 379.142,355.477 379.280,355.944 379.111 C 356.152 379.035,356.235 378.920,356.130 378.855 C 356.025 378.790,355.813 378.814,355.660 378.909 M371.370 378.933 C 371.282 379.076,371.313 379.110,371.454 379.023 C 371.578 378.946,371.680 378.970,371.680 379.076 C 371.680 379.183,371.482 379.308,371.240 379.354 C 370.863 379.427,370.877 379.443,371.338 379.466 C 371.688 379.483,371.875 379.394,371.875 379.211 C 371.875 378.831,371.545 378.650,371.370 378.933 M362.610 380.020 C 362.509 380.283,362.443 380.303,362.321 380.105 C 362.200 379.909,362.129 379.933,362.014 380.208 C 361.798 380.724,361.775 381.434,361.978 381.308 C 362.073 381.249,362.092 381.388,362.019 381.616 C 361.938 381.872,361.972 382.031,362.108 382.031 C 362.229 382.031,362.278 382.112,362.217 382.210 C 362.156 382.309,362.209 382.638,362.335 382.943 C 362.460 383.247,362.549 383.562,362.532 383.643 C 362.514 383.723,362.597 383.789,362.716 383.789 C 362.835 383.789,362.884 383.915,362.825 384.069 C 362.766 384.224,362.808 384.380,362.920 384.417 C 363.031 384.454,363.136 384.715,363.153 384.997 C 363.170 385.279,363.250 385.469,363.330 385.419 C 363.411 385.369,363.477 385.472,363.477 385.647 C 363.477 386.066,364.004 386.583,364.266 386.421 C 364.410 386.332,364.409 386.218,364.262 386.041 C 364.107 385.854,364.133 385.757,364.361 385.670 C 364.538 385.601,364.618 385.633,364.549 385.744 C 364.484 385.851,364.505 385.938,364.596 385.938 C 364.894 385.938,364.853 382.413,364.554 382.298 C 364.384 382.233,364.317 381.976,364.367 381.577 C 364.420 381.144,364.389 381.043,364.264 381.244 C 364.165 381.402,364.031 381.479,363.966 381.414 C 363.901 381.349,363.982 381.163,364.146 380.999 C 364.445 380.700,364.088 380.335,363.603 380.444 C 363.511 380.465,363.280 380.302,363.088 380.081 C 362.767 379.711,362.730 379.706,362.610 380.020 M368.480 380.166 C 368.563 380.380,368.477 380.469,368.185 380.469 C 367.959 380.469,367.773 380.554,367.773 380.658 C 367.773 380.762,367.664 380.820,367.529 380.788 C 367.395 380.755,367.351 380.765,367.432 380.810 C 367.658 380.936,367.605 381.836,367.371 381.836 C 367.258 381.836,367.215 381.918,367.277 382.018 C 367.339 382.118,367.305 382.251,367.203 382.315 C 367.100 382.378,367.029 382.993,367.045 383.682 C 367.062 384.370,367.132 384.897,367.203 384.854 C 367.425 384.716,368.013 385.512,367.866 385.751 C 367.761 385.920,367.683 385.912,367.564 385.720 C 367.476 385.577,367.355 385.510,367.295 385.570 C 367.234 385.630,367.377 385.847,367.611 386.053 C 367.844 386.258,367.977 386.325,367.906 386.202 C 367.834 386.079,367.913 385.926,368.080 385.862 C 368.262 385.792,368.325 385.646,368.237 385.499 C 368.136 385.332,368.195 385.340,368.422 385.524 C 368.734 385.778,368.734 385.810,368.410 386.072 C 368.099 386.323,368.109 386.329,368.511 386.134 C 368.756 386.015,368.910 385.844,368.854 385.753 C 368.798 385.662,368.891 385.535,369.060 385.470 C 369.461 385.316,369.536 385.321,369.508 385.498 C 369.446 385.893,369.552 386.143,369.735 386.030 C 369.847 385.961,370.045 385.989,370.175 386.092 C 370.831 386.617,372.165 386.262,372.226 385.547 L 372.284 384.863 370.908 384.928 C 369.969 384.972,369.531 384.922,369.531 384.770 C 369.531 384.648,369.443 384.602,369.336 384.668 C 369.217 384.742,369.141 384.447,369.141 383.911 C 369.141 382.868,369.395 382.727,371.155 382.796 L 372.291 382.841 372.229 382.094 C 372.174 381.417,370.703 380.788,370.703 381.441 C 370.703 381.632,369.093 381.575,368.779 381.373 C 368.610 381.264,368.555 381.004,368.626 380.648 C 368.687 380.343,368.653 380.041,368.551 379.978 C 368.447 379.914,368.416 379.997,368.480 380.166 M377.930 380.731 C 377.930 381.124,377.113 381.800,377.006 381.496 C 376.944 381.318,376.820 381.307,376.544 381.455 C 376.283 381.595,375.940 381.594,375.437 381.455 C 374.292 381.137,374.219 381.173,374.219 382.049 L 374.219 382.847 375.366 382.781 C 376.671 382.706,376.953 382.886,376.953 383.795 C 376.953 384.686,376.565 384.961,375.307 384.961 L 374.219 384.961 374.219 385.657 L 374.219 386.354 375.693 386.280 C 376.704 386.230,377.283 386.288,377.536 386.465 C 377.811 386.658,377.939 386.666,378.045 386.495 C 378.138 386.344,378.100 386.321,377.930 386.426 C 377.761 386.530,377.721 386.508,377.813 386.358 C 377.890 386.234,378.069 386.133,378.210 386.133 C 378.400 386.133,378.442 385.901,378.369 385.254 C 378.308 384.714,378.348 384.375,378.472 384.375 C 378.601 384.375,378.635 383.944,378.566 383.184 C 378.484 382.286,378.525 381.949,378.731 381.816 C 378.909 381.702,378.934 381.590,378.803 381.494 C 378.692 381.414,378.614 381.150,378.630 380.908 C 378.649 380.600,378.549 380.469,378.294 380.469 C 378.093 380.469,377.930 380.587,377.930 380.731 M380.794 381.380 C 380.317 381.857,380.727 382.031,382.324 382.031 C 383.967 382.031,384.205 381.940,383.750 381.484 C 383.504 381.238,381.024 381.151,380.794 381.380 M359.245 381.720 C 359.041 381.952,358.598 383.265,358.595 383.643 C 358.594 383.723,358.989 383.789,359.473 383.789 C 359.956 383.789,360.352 383.701,360.352 383.594 C 360.352 383.486,360.266 383.398,360.162 383.398 C 360.058 383.398,360.018 383.282,360.073 383.139 C 360.127 382.997,360.067 382.623,359.937 382.309 C 359.808 381.995,359.717 381.672,359.734 381.592 C 359.784 381.360,359.494 381.435,359.245 381.720 M339.404 382.177 C 336.584 382.271,336.625 382.813,339.453 382.813 C 341.276 382.813,341.406 382.786,341.406 382.422 C 341.406 382.207,341.384 382.050,341.357 382.072 C 341.331 382.095,340.452 382.142,339.404 382.177 M347.070 383.116 L 347.070 383.810 347.998 383.751 C 348.888 383.694,348.928 383.665,348.987 383.057 L 349.048 382.422 348.059 382.422 L 347.070 382.422 347.070 383.116 M383.984 384.180 C 383.984 384.949,384.323 385.640,384.391 385.010 C 384.482 384.169,384.454 383.838,384.301 383.932 C 384.198 383.996,384.166 383.863,384.228 383.624 C 384.289 383.393,384.259 383.203,384.161 383.203 C 384.064 383.203,383.984 383.643,383.984 384.180 M380.536 384.668 C 380.608 385.194,380.580 385.547,380.465 385.547 C 380.225 385.547,380.211 386.462,380.448 386.608 C 380.544 386.668,380.676 386.579,380.740 386.411 C 380.818 386.209,380.989 386.148,381.249 386.230 C 381.614 386.346,381.641 386.267,381.641 385.072 L 381.641 383.789 381.028 383.789 L 380.416 383.789 380.536 384.668 M358.008 386.035 C 358.008 386.196,357.915 386.328,357.801 386.328 C 357.687 386.328,357.643 386.408,357.704 386.505 C 357.764 386.602,358.002 386.633,358.234 386.572 C 358.522 386.497,358.611 386.533,358.515 386.688 C 358.438 386.812,358.478 386.914,358.603 386.914 C 358.744 386.914,358.777 386.783,358.689 386.572 C 358.611 386.384,358.543 386.121,358.538 385.986 C 358.525 385.636,358.008 385.684,358.008 386.035 M359.245 385.990 C 359.194 386.072,359.057 386.080,358.941 386.008 C 358.813 385.929,358.785 385.968,358.870 386.106 C 358.948 386.232,359.115 386.272,359.242 386.196 C 359.373 386.117,359.357 386.200,359.205 386.388 C 358.940 386.715,359.522 386.866,360.518 386.729 C 360.679 386.707,360.724 386.785,360.634 386.931 C 360.540 387.084,360.568 387.119,360.712 387.030 C 361.012 386.845,361.000 386.196,360.693 386.001 C 360.380 385.802,359.366 385.794,359.245 385.990 M354.006 387.497 C 353.857 387.737,354.393 387.878,354.705 387.680 C 354.857 387.584,354.937 387.498,354.883 387.488 C 354.829 387.478,354.632 387.441,354.444 387.405 C 354.257 387.369,354.059 387.410,354.006 387.497 " stroke="none" fill="#c0cad1" fill-rule="evenodd"></path><path id="path4" d="M264.533 112.500 C 264.533 114.272,264.562 114.998,264.598 114.111 C 264.635 113.225,264.635 111.775,264.598 110.889 C 264.562 110.002,264.533 110.728,264.533 112.500 M191.846 120.801 C 191.848 121.230,191.888 121.383,191.935 121.140 C 191.982 120.897,191.980 120.546,191.931 120.359 C 191.882 120.172,191.844 120.371,191.846 120.801 M214.303 124.805 C 214.303 125.181,214.343 125.334,214.392 125.146 C 214.442 124.958,214.442 124.651,214.392 124.463 C 214.343 124.275,214.303 124.429,214.303 124.805 M209.256 127.246 C 209.256 128.643,209.287 129.188,209.325 128.459 C 209.362 127.729,209.362 126.587,209.324 125.920 C 209.286 125.253,209.255 125.850,209.256 127.246 M188.150 127.832 C 188.151 128.584,188.186 128.868,188.228 128.462 C 188.271 128.057,188.270 127.442,188.227 127.095 C 188.184 126.749,188.149 127.080,188.150 127.832 M131.881 129.492 C 131.881 129.868,131.921 130.022,131.971 129.834 C 132.020 129.646,132.020 129.338,131.971 129.150 C 131.921 128.962,131.881 129.116,131.881 129.492 M264.502 129.590 C 264.505 130.020,264.545 130.172,264.591 129.929 C 264.638 129.686,264.636 129.335,264.587 129.148 C 264.538 128.961,264.500 129.160,264.502 129.590 M264.533 134.375 C 264.533 136.147,264.562 136.873,264.598 135.986 C 264.635 135.100,264.635 133.650,264.598 132.764 C 264.562 131.877,264.533 132.603,264.533 134.375 M137.390 141.309 C 137.390 144.102,137.417 145.217,137.451 143.787 C 137.484 142.358,137.484 140.072,137.451 138.709 C 137.417 137.346,137.390 138.516,137.390 141.309 M261.719 144.824 C 261.244 145.308,260.900 145.703,260.954 145.703 C 261.008 145.703,261.440 145.308,261.914 144.824 C 262.388 144.341,262.733 143.945,262.679 143.945 C 262.625 143.945,262.193 144.341,261.719 144.824 M188.165 147.656 C 188.165 149.321,188.195 150.002,188.231 149.170 C 188.268 148.337,188.268 146.975,188.231 146.143 C 188.195 145.310,188.165 145.991,188.165 147.656 M209.034 148.340 C 209.036 148.770,209.076 148.922,209.123 148.679 C 209.169 148.436,209.167 148.085,209.119 147.898 C 209.070 147.711,209.031 147.910,209.034 148.340 M236.999 149.854 L 236.426 150.488 237.061 149.915 C 237.652 149.380,237.785 149.219,237.634 149.219 C 237.601 149.219,237.315 149.504,236.999 149.854 M200.244 153.650 C 200.432 153.699,200.740 153.699,200.928 153.650 C 201.116 153.601,200.962 153.561,200.586 153.561 C 200.210 153.561,200.056 153.601,200.244 153.650 M173.103 173.387 C 173.724 173.426,174.691 173.425,175.251 173.386 C 175.811 173.347,175.303 173.315,174.121 173.315 C 172.939 173.316,172.481 173.348,173.103 173.387 M156.203 184.513 C 156.446 184.560,156.798 184.558,156.985 184.509 C 157.171 184.460,156.973 184.422,156.543 184.424 C 156.113 184.426,155.960 184.466,156.203 184.513 M262.917 219.273 C 262.900 219.685,262.776 219.923,262.549 219.983 C 262.228 220.066,262.229 220.073,262.555 220.095 C 262.966 220.121,263.151 219.737,263.030 219.106 C 262.963 218.753,262.938 218.789,262.917 219.273 M89.063 221.741 C 89.063 221.774,89.348 222.060,89.697 222.376 L 90.332 222.949 89.758 222.314 C 89.224 221.723,89.063 221.590,89.063 221.741 M129.177 239.160 C 129.178 240.557,129.209 241.102,129.247 240.373 C 129.284 239.643,129.284 238.501,129.246 237.834 C 129.208 237.167,129.177 237.764,129.177 239.160 M259.375 245.508 L 239.746 245.608 259.315 245.656 C 272.201 245.687,278.924 245.636,279.004 245.508 C 279.070 245.400,279.097 245.334,279.064 245.360 C 279.031 245.386,270.171 245.453,259.375 245.508 M131.201 245.652 C 131.873 245.691,132.971 245.691,133.643 245.652 C 134.314 245.614,133.765 245.583,132.422 245.583 C 131.079 245.583,130.530 245.614,131.201 245.652 M149.576 245.654 C 157.560 245.683,170.568 245.683,178.482 245.654 C 186.396 245.626,179.863 245.603,163.965 245.603 C 148.066 245.603,141.591 245.626,149.576 245.654 M204.233 245.654 C 210.375 245.683,220.482 245.683,226.694 245.654 C 232.906 245.626,227.881 245.602,215.527 245.602 C 203.174 245.602,198.091 245.626,204.233 245.654 M236.768 268.896 C 238.352 268.929,240.945 268.929,242.529 268.896 C 244.114 268.863,242.817 268.836,239.648 268.836 C 236.479 268.836,235.183 268.863,236.768 268.896 M245.210 286.816 C 245.210 295.195,245.234 298.595,245.264 294.370 C 245.293 290.146,245.293 283.291,245.264 279.136 C 245.234 274.981,245.210 278.438,245.210 286.816 M168.359 284.863 C 167.885 285.347,167.541 285.742,167.594 285.742 C 167.648 285.742,168.080 285.347,168.555 284.863 C 169.029 284.380,169.373 283.984,169.320 283.984 C 169.266 283.984,168.834 284.380,168.359 284.863 M187.109 284.827 C 187.109 284.860,187.395 285.146,187.744 285.462 L 188.379 286.035 187.805 285.400 C 187.271 284.809,187.109 284.676,187.109 284.827 M207.486 295.605 C 207.487 296.357,207.522 296.641,207.564 296.236 C 207.607 295.831,207.606 295.215,207.563 294.869 C 207.520 294.522,207.485 294.854,207.486 295.605 M164.128 296.094 C 164.128 296.899,164.163 297.229,164.205 296.826 C 164.247 296.423,164.247 295.764,164.205 295.361 C 164.163 294.958,164.128 295.288,164.128 296.094 M177.688 310.685 C 177.931 310.732,178.282 310.730,178.469 310.681 C 178.656 310.632,178.457 310.594,178.027 310.596 C 177.598 310.598,177.445 310.638,177.688 310.685 M223.389 311.075 C 223.630 311.122,224.026 311.122,224.268 311.075 C 224.509 311.029,224.312 310.991,223.828 310.991 C 223.345 310.991,223.147 311.029,223.389 311.075 M199.698 315.088 L 198.926 315.918 199.756 315.146 C 200.528 314.428,200.676 314.258,200.528 314.258 C 200.496 314.258,200.122 314.631,199.698 315.088 M176.911 324.168 C 177.478 324.207,178.357 324.207,178.864 324.167 C 179.371 324.127,178.906 324.094,177.832 324.095 C 176.758 324.095,176.343 324.128,176.911 324.168 " stroke="none" fill="#7c7c8a" fill-rule="evenodd"></path></g></svg>